<svg width="1500" height="900" viewBox="0 0 1500 900" fill="none" xmlns="http://www.w3.org/2000/svg">
<g clip-path="url(#clip0_14074_44)">
<path d="M255.161 65.3766C226.041 7.37587 155.422 -16.0401 97.4215 13.0756L-252.649 188.805C-310.649 217.92 -334.058 288.542 -304.948 346.543L-129.219 696.608C-100.099 754.609 -29.4785 778.025 28.5215 748.909L378.581 573.181C436.581 544.065 460.001 473.443 430.881 415.443L255.161 65.3766Z" fill="#FAFAF9"/>
<path d="M1787.04 721.205C1804.05 691.747 1793.96 654.08 1764.5 637.073L1586.71 534.424C1557.25 517.417 1519.58 527.509 1502.58 556.966L1399.93 734.76C1382.92 764.217 1393.01 801.885 1422.47 818.892L1600.26 921.541C1629.72 938.548 1667.39 928.455 1684.39 898.997L1787.04 721.205Z" fill="#FAFAF9"/>
</g>
<defs>
<clipPath id="clip0_14074_44">
<rect width="1500" height="900" fill="white" transform="matrix(-1 0 0 1 1500 0)"/>
</clipPath>
</defs>
</svg>
