<svg width="1500" height="900" viewBox="0 0 1500 900" fill="none" xmlns="http://www.w3.org/2000/svg">
<path d="M1244.84 65.3771C1273.96 7.37632 1344.58 -16.0397 1402.58 13.076L1752.65 188.805C1810.65 217.92 1834.06 288.542 1804.95 346.543L1629.22 696.608C1600.1 754.609 1529.48 778.025 1471.48 748.909L1121.42 573.181C1063.42 544.065 1040 473.443 1069.12 415.443L1244.84 65.3771Z" fill="#FAFAF9"/>
<path d="M-287.041 721.205C-304.049 691.747 -293.956 654.08 -264.498 637.073L-86.7058 534.424C-57.2481 517.417 -19.5808 527.51 -2.57346 556.967L100.075 734.76C117.082 764.217 106.989 801.885 77.5319 818.892L-100.261 921.541C-129.718 938.548 -167.385 928.455 -184.393 898.997L-287.041 721.205Z" fill="#FAFAF9"/>
</svg>
