<svg width="342" height="90" viewBox="0 0 342 90" fill="none" xmlns="http://www.w3.org/2000/svg">
<path d="M149.49 74.0002H115.65V13.7002H147.69C152.31 13.7002 156.12 14.2402 159.12 15.3202C162.18 16.3402 164.46 17.9602 165.96 20.1802C167.46 22.3402 168.21 25.1302 168.21 28.5502C168.21 32.3302 167.19 35.3302 165.15 37.5502C163.11 39.7702 160.02 41.0602 155.88 41.4202V42.5902C160.98 42.7702 164.76 44.2402 167.22 47.0002C169.74 49.7602 171 53.1802 171 57.2602C171 60.7402 170.22 63.7402 168.66 66.2602C167.16 68.7802 164.82 70.7002 161.64 72.0202C158.46 73.3402 154.41 74.0002 149.49 74.0002ZM132.57 49.7902V58.7902H148.86C150.48 58.7902 151.71 58.5502 152.55 58.0702C153.39 57.5902 153.81 56.3602 153.81 54.3802C153.81 52.3402 153.42 51.0802 152.64 50.6002C151.86 50.0602 150.6 49.7902 148.86 49.7902H132.57ZM132.57 28.9102V36.6502H146.79C148.53 36.6502 149.7 36.3802 150.3 35.8402C150.96 35.3002 151.29 34.2802 151.29 32.7802C151.29 31.1602 150.9 30.1102 150.12 29.6302C149.4 29.1502 148.17 28.9102 146.43 28.9102H132.57ZM218.624 74.0002H202.784V66.9802L202.514 64.1002V45.1102C202.514 43.6702 202.124 42.6802 201.344 42.1402C200.624 41.5402 199.034 41.2402 196.574 41.2402C194.114 41.2402 192.464 41.5102 191.624 42.0502C190.844 42.5902 190.454 43.5502 190.454 44.9302V46.3702H174.344V45.2902C174.344 41.4502 175.274 38.1802 177.134 35.4802C179.054 32.7202 181.724 30.5902 185.144 29.0902C188.564 27.5902 192.584 26.8402 197.204 26.8402C202.004 26.8402 205.964 27.5602 209.084 29.0002C212.264 30.4402 214.634 32.6002 216.194 35.4802C217.814 38.3002 218.624 41.9002 218.624 46.2802V74.0002ZM187.304 74.9002C183.344 74.9002 180.014 73.8502 177.314 71.7502C174.614 69.5902 173.264 66.4102 173.264 62.2102C173.264 59.8102 173.774 57.7402 174.794 56.0002C175.874 54.2002 177.464 52.7302 179.564 51.5902C181.724 50.4502 184.454 49.6102 187.754 49.0702L203.414 46.5502V56.4502L191.264 58.5202C190.364 58.6402 189.704 58.8802 189.284 59.2402C188.924 59.5402 188.744 60.0202 188.744 60.6802C188.744 61.4602 189.044 62.0002 189.644 62.3002C190.244 62.5402 191.324 62.6602 192.884 62.6602C195.224 62.6602 197.084 62.4502 198.464 62.0302C199.904 61.5502 200.924 60.8302 201.524 59.8702C202.184 58.8502 202.514 57.5302 202.514 55.9102L203.774 68.4202H201.974C201.314 69.3802 200.384 70.3702 199.184 71.3902C197.984 72.3502 196.424 73.1902 194.504 73.9102C192.584 74.5702 190.184 74.9002 187.304 74.9002ZM244.631 74.9002C237.011 74.9002 231.401 73.4602 227.801 70.5802C224.201 67.7002 222.401 63.6202 222.401 58.3402V58.0702H238.151V59.2402C238.151 60.0802 238.301 60.7402 238.601 61.2202C238.901 61.6402 239.501 61.9402 240.401 62.1202C241.361 62.3002 242.771 62.3902 244.631 62.3902C246.191 62.3902 247.331 62.3302 248.051 62.2102C248.771 62.0902 249.221 61.8802 249.401 61.5802C249.641 61.2202 249.761 60.7702 249.761 60.2302C249.761 59.5102 249.521 59.0002 249.041 58.7002C248.561 58.3402 247.361 57.9802 245.441 57.6202L236.621 56.0002C233.561 55.4002 230.951 54.5602 228.791 53.4802C226.631 52.4002 224.981 50.9302 223.841 49.0702C222.761 47.1502 222.221 44.6902 222.221 41.6902C222.221 37.4302 223.931 33.8902 227.351 31.0702C230.831 28.2502 235.991 26.8402 242.831 26.8402C246.791 26.8402 250.331 27.4102 253.451 28.5502C256.631 29.6902 259.121 31.4002 260.921 33.6802C262.781 35.9602 263.711 38.8102 263.711 42.2302V43.9402H247.871V43.1302C247.871 42.1702 247.721 41.4502 247.421 40.9702C247.121 40.4302 246.551 40.0702 245.711 39.8902C244.931 39.6502 243.821 39.5302 242.381 39.5302C240.341 39.5302 239.051 39.7402 238.511 40.1602C238.031 40.5202 237.791 41.0302 237.791 41.6902C237.791 42.2902 237.971 42.7702 238.331 43.1302C238.751 43.4902 239.711 43.8202 241.211 44.1202L251.561 46.2802C255.041 47.0002 257.771 47.9602 259.751 49.1602C261.791 50.3002 263.231 51.7702 264.071 53.5702C264.971 55.3102 265.421 57.4402 265.421 59.9602C265.421 64.3402 263.651 67.9402 260.111 70.7602C256.571 73.5202 251.411 74.9002 244.631 74.9002ZM291.599 74.9002C286.619 74.9002 282.359 73.9702 278.819 72.1102C275.339 70.1902 272.669 67.4902 270.809 64.0102C269.009 60.4702 268.109 56.2402 268.109 51.3202C268.109 46.2202 269.039 41.8402 270.899 38.1802C272.759 34.5202 275.489 31.7302 279.089 29.8102C282.689 27.8302 287.039 26.8402 292.139 26.8402C297.119 26.8402 301.259 27.7402 304.559 29.5402C307.919 31.3402 310.409 33.8302 312.029 37.0102C313.709 40.1302 314.549 43.7602 314.549 47.9002C314.549 49.1602 314.459 50.4202 314.279 51.6802C314.099 52.9402 313.949 53.9602 313.829 54.7402H275.309V45.5602H299.159L298.439 46.0102C298.499 44.9302 298.319 43.9702 297.899 43.1302C297.539 42.2302 296.819 41.5102 295.739 40.9702C294.719 40.4302 293.219 40.1602 291.239 40.1602C288.479 40.1602 286.559 40.6702 285.479 41.6902C284.399 42.6502 283.859 44.2102 283.859 46.3702V52.7602C283.859 54.9802 284.039 56.6902 284.399 57.8902C284.759 59.0302 285.509 59.8102 286.649 60.2302C287.789 60.6502 289.529 60.8602 291.869 60.8602C293.909 60.8602 295.319 60.6502 296.099 60.2302C296.879 59.7502 297.269 59.0002 297.269 57.9802V57.8002H314.009V58.8802C314.009 62.0002 313.079 64.7602 311.219 67.1602C309.419 69.5602 306.839 71.4502 303.479 72.8302C300.179 74.2102 296.219 74.9002 291.599 74.9002ZM335.321 74.0002H318.491V13.7002H335.321V74.0002Z" fill="#29292B"/>
<path fill-rule="evenodd" clip-rule="evenodd" d="M7.5 0H82.5C86.6421 0 90 3.35786 90 7.5V82.5C90 86.6421 86.6421 90 82.5 90H7.5C3.35786 90 0 86.6421 0 82.5V7.5C0 3.35786 3.35786 0 7.5 0ZM75.2271 39.2809C76.6916 37.8164 76.6916 35.4421 75.2271 33.9776L67.2721 26.0226C65.8077 24.5582 63.4333 24.5582 61.9688 26.0226L43.1246 44.8669L31.7804 33.5226C30.3159 32.0582 27.9416 32.0582 26.4771 33.5226L18.5221 41.4776C17.0577 42.9421 17.0577 45.3164 18.5221 46.7809L40.473 68.7317C41.9374 70.1962 44.3118 70.1962 45.7763 68.7317L75.2271 39.2809Z" fill="#29292B"/>
</svg>
