<?xml version="1.0" standalone="no"?>
<!DOCTYPE svg PUBLIC "-//W3C//DTD SVG 20010904//EN"
 "http://www.w3.org/TR/2001/REC-SVG-20010904/DTD/svg10.dtd">
<svg version="1.0" xmlns="http://www.w3.org/2000/svg"
 width="191.000000pt" height="70.000000pt" viewBox="0 0 800.000000 293.000000"
 preserveAspectRatio="xMidYMid meet">

<g transform="translate(0.000000,293.000000) scale(0.100000,-0.100000)"
fill="#000000" stroke="none">
<path d="M274 2896 c-33 -12 -74 -32 -91 -44 -57 -41 -131 -131 -155 -190
l-23 -57 0 -1135 0 -1135 23 -58 c45 -109 137 -201 252 -249 l55 -23 3628 -3
c4004 -2 3713 -7 3825 60 101 61 176 168 202 288 8 41 10 340 8 1155 l-3 1100
-23 55 c-49 120 -137 204 -251 240 -63 20 -87 20 -3725 19 l-3661 0 -61 -23z
m7121 -445 c49 -23 99 -75 114 -120 37 -112 -31 -233 -147 -261 -137 -33 -270
86 -248 223 22 134 163 213 281 158z m-4295 -341 l0 -321 38 39 c76 79 187
122 317 122 142 0 266 -52 363 -154 111 -115 162 -258 162 -451 0 -192 -49
-330 -160 -448 -99 -106 -221 -157 -375 -157 -130 0 -230 38 -322 123 l-43 40
0 -72 0 -71 -155 0 -155 0 0 830 0 829 138 4 c75 1 149 4 165 5 l27 2 0 -320z
m-1945 -177 c134 -33 241 -116 297 -231 l33 -67 3 -437 3 -438 -144 0 c-163 0
-157 -3 -157 84 l0 38 -41 -37 c-92 -83 -264 -131 -388 -108 -145 27 -268 121
-307 235 -26 75 -24 178 5 245 67 153 246 224 619 249 l102 7 0 31 c-1 40 -23
102 -47 128 -30 34 -93 58 -154 58 -102 0 -164 -34 -219 -122 -19 -29 -35 -54
-36 -56 -2 -3 -226 140 -243 154 -8 7 49 83 98 132 136 136 361 189 576 135z
m5553 -11 c122 -47 204 -117 255 -222 l32 -65 3 -437 3 -438 -144 0 -144 0 -7
31 c-3 17 -6 45 -6 61 l0 30 -40 -35 c-103 -94 -269 -136 -412 -106 -127 27
-248 126 -284 231 -28 82 -24 183 10 251 73 151 245 219 614 243 l102 7 0 27
c0 70 -45 144 -104 171 -54 25 -157 25 -211 0 -45 -20 -98 -75 -123 -127 -9
-20 -21 -33 -29 -30 -10 4 -217 140 -232 152 -8 7 51 86 105 139 87 85 212
137 354 147 70 5 207 -11 258 -30z m-1838 3 c200 -60 354 -218 404 -411 21
-81 21 -260 1 -339 -38 -145 -114 -256 -230 -333 -211 -142 -514 -145 -727 -9
-109 69 -199 197 -233 327 -22 85 -22 272 0 354 55 207 230 373 445 421 82 19
262 13 340 -10z m-2940 -397 c0 -364 2 -396 19 -435 27 -58 60 -77 135 -77 79
1 125 16 164 57 66 68 67 74 70 475 l3 362 38 0 c21 0 93 3 159 7 l122 6 0
-581 0 -582 -149 0 -149 0 -7 81 c-7 77 -8 79 -23 57 -83 -125 -214 -178 -387
-157 -176 22 -286 140 -315 337 -5 37 -10 239 -10 449 l0 382 88 4 c48 1 122
4 165 5 l77 2 0 -392z m5550 -188 l0 -580 -154 0 -154 0 -5 73 c-2 39 -4 298
-6 574 l-1 502 117 4 c65 1 137 4 161 5 l42 2 0 -580z m-1789 -197 c210 -107
117 -414 -118 -390 -207 21 -258 298 -72 391 69 34 120 34 190 -1z"/>
<path d="M3297 1666 c-27 -7 -67 -26 -90 -43 -134 -94 -154 -414 -34 -541 57
-60 101 -77 202 -77 81 0 95 3 138 28 92 54 132 153 131 322 -2 204 -79 306
-240 320 -35 3 -79 -1 -107 -9z"/>
<path d="M1053 1268 c-210 -13 -303 -60 -303 -155 0 -98 70 -151 186 -140 76
7 119 24 168 67 56 50 77 99 74 173 l-3 62 -122 -7z"/>
<path d="M6574 1269 c-118 -7 -219 -28 -260 -55 -52 -35 -70 -115 -38 -175 46
-89 238 -90 335 -2 60 54 80 101 77 176 l-3 62 -111 -6z"/>
<path d="M4582 1678 c-42 -14 -118 -81 -139 -122 -28 -54 -43 -128 -43 -216 0
-215 90 -339 252 -348 90 -5 148 12 202 59 80 70 119 215 98 359 -19 131 -65
210 -146 252 -48 25 -172 34 -224 16z"/>
</g>
</svg>
