<svg width="106" height="29" viewBox="0 0 106 29" fill="none" xmlns="http://www.w3.org/2000/svg">
<path d="M90.4729 28.9663V25.78H93.0095C94.5872 25.78 94.9584 25.316 95.4534 23.8621L95.8246 22.934L89.7305 6.69336H93.9066L97.8663 18.9435L101.795 6.69336H106.002L99.3821 24.6045C98.454 27.1411 97.2785 28.9663 94.216 28.9663H90.4729Z" fill="#2A2928"/>
<path d="M81.7291 4.62016C81.7291 1.37203 83.4614 0.505859 86.1837 0.505859H89.6793V3.50652H87.1427C85.9981 3.50652 85.5959 3.97053 85.5959 5.02231V6.69278H89.6793V9.69343H85.5959V22.7788H81.7291V9.69343H78.9141V6.69278H81.7291V4.62016Z" fill="#2A2928"/>
<path d="M73.8281 22.7788V6.69278H77.6949V22.7788H73.8281ZM73.8281 4.12521V0.505859H77.7259V4.12521H73.8281Z" fill="#2A2928"/>
<path d="M62.4336 22.7775V6.69147H66.2076V9.56838C67.2903 7.31016 69.0227 6.50586 71.0643 6.50586H72.3327V10.0943H70.9097C68.1874 10.0943 66.3314 11.2389 66.3314 14.9819V22.7775H62.4336Z" fill="#2A2928"/>
<path d="M56.7708 22.7775V20.9214C55.3788 22.5919 53.6774 23.1487 51.6666 23.1487C48.171 23.1487 45.7891 21.4164 45.7891 18.292C45.7891 15.446 47.7998 14.023 51.976 13.3115L56.6471 12.4763V11.5483C56.6471 10.0943 55.7809 9.32097 53.7083 9.32097C51.945 9.32097 50.4602 10.0634 50.3674 11.8267H46.5315C46.5934 7.99078 49.8106 6.32031 53.6774 6.32031C58.2557 6.32031 60.4521 8.17639 60.4521 11.1152V22.7775H56.7708ZM49.7796 18.1683C49.7796 19.4366 50.6458 20.2718 52.5328 20.2718C54.5745 20.2718 56.6471 19.1891 56.6471 16.5287V15.1057L52.6875 15.91C50.8623 16.2813 49.7796 16.7143 49.7796 18.1683Z" fill="#2A2928"/>
<path d="M40.332 22.7788V0.505859H44.2298V22.7788H40.332Z" fill="#2A2928"/>
<path d="M28.6924 23.1501C21.4537 23.1501 17.6797 17.8912 17.6797 11.6424C17.6797 5.39365 21.4537 0.134766 28.6924 0.134766C34.1678 0.134766 37.7562 3.63038 38.4987 8.3015H34.2916C33.7347 5.67206 31.6931 3.84692 28.6924 3.84692C24.0213 3.84692 22.0105 7.43533 22.0105 11.6424C22.0105 15.8495 24.0213 19.438 28.6924 19.438C31.9096 19.438 33.9203 17.3035 34.4153 14.3956H38.5915C38.0037 19.3761 34.4153 23.1501 28.6924 23.1501Z" fill="#2A2928"/>
<path d="M0 13.802C0 12.6579 0.927448 11.7305 2.07151 11.7305H8.97655C10.1206 11.7305 11.0481 12.6579 11.0481 13.802V20.707C11.0481 21.8511 10.1206 22.7785 8.97655 22.7785H2.07151C0.927448 22.7785 0 21.8511 0 20.707V13.802Z" fill="#FBE57E"/>
</svg>
