<svg width="1452" height="725" viewBox="0 0 1452 725" fill="none" xmlns="http://www.w3.org/2000/svg">
<path d="M-138.283 624.163C-177.121 556.894 -154.073 470.877 -86.8042 432.039L319.2 197.633C386.469 158.795 472.486 181.843 511.324 249.112L745.73 655.116C784.568 722.385 761.52 808.402 694.251 847.24L288.247 1081.65C220.978 1120.48 134.961 1097.44 96.1233 1030.17L-138.283 624.163Z" fill="#FAE16B"/>
<path d="M1080.13 -45.4853C1086.22 -94.3523 1130.77 -129.027 1179.64 -122.934L1474.58 -86.1568C1523.45 -80.0634 1558.12 -35.5093 1552.03 13.3577L1515.25 308.296C1509.16 357.163 1464.6 391.838 1415.74 385.744L1120.8 348.967C1071.93 342.874 1037.26 298.32 1043.35 249.453L1080.13 -45.4853Z" fill="#FAE16B"/>
</svg>
