<svg width="44" height="44" viewBox="0 0 44 44" fill="none" xmlns="http://www.w3.org/2000/svg">
<rect width="44" height="44" rx="12" fill="#FBE57E"/>
<path d="M20.0664 22.4929L13.8864 23.8109C13.6465 23.863 13.3958 23.8185 13.1884 23.6871C12.9811 23.5558 12.8338 23.348 12.7784 23.1089L12.2414 20.9589C12.1782 20.6999 12.2141 20.4266 12.3419 20.1926C12.4697 19.9586 12.6803 19.7808 12.9324 19.6939L26.4364 15.2539" stroke="#2A2928" stroke-linecap="round" stroke-linejoin="round"/>
<path d="M23.5586 21.7463L27.8906 20.8223" stroke="#2A2928" stroke-linecap="round" stroke-linejoin="round"/>
<path d="M25.9995 30.9991L22.8945 24.7891" stroke="#2A2928" stroke-linecap="round" stroke-linejoin="round"/>
<path d="M26.4854 15.9396C26.3569 15.4251 26.4379 14.8806 26.7108 14.4258C26.9837 13.9711 27.426 13.6433 27.9404 13.5146L29.0304 13.2426C29.2875 13.1785 29.5596 13.219 29.7869 13.3553C30.0141 13.4917 30.178 13.7126 30.2424 13.9696L31.7574 20.0296C31.8219 20.2869 31.7815 20.5592 31.6451 20.7867C31.5088 21.0142 31.2877 21.1782 31.0304 21.2426L29.9404 21.5146C29.4259 21.6432 28.8814 21.5621 28.4267 21.2893C27.9719 21.0164 27.6441 20.5741 27.5154 20.0596L26.4854 15.9396Z" stroke="#2A2928" stroke-linecap="round" stroke-linejoin="round"/>
<path d="M16.1562 18.6328L17.2702 23.0888" stroke="#2A2928" stroke-linecap="round" stroke-linejoin="round"/>
<path d="M18 30.9991L21.105 24.7891" stroke="#2A2928" stroke-linecap="round" stroke-linejoin="round"/>
<path d="M22 25C23.1046 25 24 24.1046 24 23C24 21.8954 23.1046 21 22 21C20.8954 21 20 21.8954 20 23C20 24.1046 20.8954 25 22 25Z" stroke="#2A2928" stroke-linecap="round" stroke-linejoin="round"/>
</svg>
