<svg width="408" height="90" viewBox="0 0 408 90" fill="none" xmlns="http://www.w3.org/2000/svg">
<g clip-path="url(#clip0_12091_45)">
<path d="M108.605 18.5293H121.353V68.5339H151.568V79.4944H108.605V18.5293Z" fill="#29292B"/>
<path d="M197.098 40.1193C200.905 44.8895 202.809 50.5283 202.809 57.0356C202.809 63.6533 200.905 69.3196 197.098 74.0347C193.29 78.7222 187.509 81.066 179.755 81.066C172.002 81.066 166.221 78.7222 162.413 74.0347C158.605 69.3196 156.701 63.6533 156.701 57.0356C156.701 50.5283 158.605 44.8895 162.413 40.1193C166.221 35.349 172.002 32.9639 179.755 32.9639C187.509 32.9639 193.29 35.349 197.098 40.1193ZM179.714 42.9318C176.265 42.9318 173.602 44.1588 171.726 46.6128C169.877 49.0393 168.953 52.5136 168.953 57.0356C168.953 61.5577 169.877 65.0457 171.726 67.4998C173.602 69.9538 176.265 71.1809 179.714 71.1809C183.163 71.1809 185.812 69.9538 187.661 67.4998C189.509 65.0457 190.434 61.5577 190.434 57.0356C190.434 52.5136 189.509 49.0393 187.661 46.6128C185.812 44.1588 183.163 42.9318 179.714 42.9318Z" fill="#29292B"/>
<path d="M232.527 43.1388C228.526 43.1388 225.781 44.8345 224.291 48.2261C223.518 50.0184 223.132 52.307 223.132 55.0919V79.4945H211.377V34.4945H222.759V41.0708C224.277 38.7546 225.712 37.0864 227.064 36.0662C229.492 34.2463 232.569 33.3364 236.294 33.3364C240.957 33.3364 244.765 34.5634 247.717 37.0174C250.697 39.4439 252.187 43.4834 252.187 49.136V79.4945H240.102V52.0726C240.102 49.7013 239.784 47.8814 239.15 46.613C237.991 44.2969 235.783 43.1388 232.527 43.1388Z" fill="#29292B"/>
<path d="M304.173 18.6118V79.4942H292.708V73.2488C291.025 75.9234 289.107 77.8673 286.955 79.0806C284.802 80.2938 282.126 80.9004 278.925 80.9004C273.655 80.9004 269.212 78.7773 265.598 74.5309C262.01 70.257 260.217 64.7837 260.217 58.1109C260.217 50.4179 261.983 44.3655 265.515 39.9537C269.074 35.542 273.82 33.3361 279.753 33.3361C282.485 33.3361 284.913 33.9427 287.037 35.1559C289.162 36.3416 290.887 37.996 292.211 40.1192V18.6118H304.173ZM272.385 57.2423C272.385 61.4059 273.213 64.7285 274.869 67.2102C276.497 69.7194 278.98 70.974 282.319 70.974C285.658 70.974 288.196 69.7331 289.935 67.2515C291.673 64.7699 292.542 61.5576 292.542 57.6146C292.542 52.0999 291.149 48.1569 288.362 45.7855C286.651 44.3517 284.664 43.6348 282.402 43.6348C278.953 43.6348 276.414 44.9445 274.786 47.564C273.186 50.1559 272.385 53.382 272.385 57.2423Z" fill="#29292B"/>
<path d="M352.556 40.1193C356.364 44.8895 358.268 50.5283 358.268 57.0356C358.268 63.6533 356.364 69.3196 352.556 74.0347C348.748 78.7222 342.968 81.066 335.214 81.066C327.46 81.066 321.68 78.7222 317.872 74.0347C314.064 69.3196 312.16 63.6533 312.16 57.0356C312.16 50.5283 314.064 44.8895 317.872 40.1193C321.68 35.349 327.46 32.9639 335.214 32.9639C342.968 32.9639 348.748 35.349 352.556 40.1193ZM335.173 42.9318C331.723 42.9318 329.061 44.1588 327.184 46.6128C325.336 49.0393 324.411 52.5136 324.411 57.0356C324.411 61.5577 325.336 65.0457 327.184 67.4998C329.061 69.9538 331.723 71.1809 335.173 71.1809C338.622 71.1809 341.271 69.9538 343.119 67.4998C344.968 65.0457 345.893 61.5577 345.893 57.0356C345.893 52.5136 344.968 49.0393 343.119 46.6128C341.271 44.1588 338.622 42.9318 335.173 42.9318Z" fill="#29292B"/>
<path d="M387.988 43.1388C383.987 43.1388 381.241 44.8345 379.751 48.2261C378.979 50.0184 378.592 52.307 378.592 55.0919V79.4945H366.838V34.4945H378.22V41.0708C379.738 38.7546 381.172 37.0864 382.524 36.0662C384.953 34.2463 388.029 33.3364 391.754 33.3364C396.418 33.3364 400.225 34.5634 403.178 37.0174C406.158 39.4439 407.648 43.4834 407.648 49.136V79.4945H395.562V52.0726C395.562 49.7013 395.245 47.8814 394.61 46.613C393.451 44.2969 391.244 43.1388 387.988 43.1388Z" fill="#29292B"/>
<path d="M35.3406 0H70.6811L35.3406 52.8784H0L35.3406 0Z" fill="#29292B"/>
<path d="M62.2059 63.5293H0L18.5294 89.9999H82.0588L62.2059 63.5293Z" fill="#29292B"/>
</g>
<defs>
<clipPath id="clip0_12091_45">
<rect width="408" height="90" fill="white"/>
</clipPath>
</defs>
</svg>
