<svg width="429" height="90" viewBox="0 0 429 90" fill="none" xmlns="http://www.w3.org/2000/svg">
<g clip-path="url(#clip0_12091_87)">
<path d="M32.6293 87.9677C23.8483 87.6774 17.2127 85.6935 12.7224 82.0161C8.23216 78.2419 4.98919 74.0323 2.99351 69.3871C0.997838 64.6452 0 59.8548 0 55.0161C0 49.9839 0.947946 45.1452 2.84384 40.5C4.83951 35.7581 8.08249 31.5484 12.5728 27.871C17.1628 24.0968 22.9503 22.1613 29.9351 22.0645H78.4301C85.4149 22.1613 91.1525 24.0968 95.6428 27.871C100.233 31.5484 103.476 35.7581 105.372 40.5C107.367 45.1452 108.365 49.9839 108.365 55.0161C108.365 59.8548 107.367 64.6452 105.372 69.3871C103.376 74.0323 100.133 78.2419 95.6428 82.0161C91.1525 85.6935 84.5169 87.6774 75.7359 87.9677H32.6293ZM29.3364 41.5161C27.4405 41.5161 25.7941 42.2903 24.3971 43.8387C23.0002 45.2903 21.9524 47.0323 21.254 49.0645C20.6552 51 20.3559 52.9354 20.3559 54.8709C20.3559 56.9031 20.6552 58.9355 21.254 60.9677C21.9524 62.9032 23.0002 64.6452 24.3971 66.1936C25.7941 67.6452 27.4405 68.4193 29.3364 68.5161H79.0288C80.9247 68.4193 82.5711 67.6452 83.9681 66.1936C85.3651 64.6452 86.3629 62.9032 86.9616 60.9677C87.6601 58.9355 88.0093 56.9031 88.0093 54.8709C88.0093 52.9354 87.6601 51 86.9616 49.0645C86.3629 47.0323 85.3651 45.2903 83.9681 43.8387C82.5711 42.2903 80.9247 41.5161 79.0288 41.5161H29.3364Z" fill="#29292B"/>
<path d="M220.622 30.4842C220.622 32.9035 219.624 34.9358 217.628 36.5809C215.733 38.1293 213.388 38.9035 210.594 38.9035H147.281C145.984 38.9035 144.936 39.1455 144.138 39.6293C143.339 40.1132 142.741 40.6455 142.342 41.2261C141.942 41.71 141.743 42.1455 141.743 42.5326C141.743 43.0164 141.942 43.5487 142.342 44.1293C142.741 44.6132 143.339 45.0971 144.138 45.5809C144.936 45.968 145.984 46.21 147.281 46.3067H196.225C202.511 46.4035 207.7 47.6132 211.791 49.9358C215.882 52.1616 218.776 54.8229 220.472 57.9197C222.268 60.9197 223.166 63.968 223.166 67.0648C223.166 70.0648 222.268 73.1132 220.472 76.21C218.676 79.21 215.733 81.8713 211.641 84.1938C207.65 86.4196 202.511 87.5326 196.225 87.5326C195.127 87.6293 194.329 87.6777 193.83 87.6777H135.756C132.962 87.6777 130.567 86.9035 128.571 85.3551C126.676 83.71 125.728 81.7261 125.728 79.4035C125.728 76.9842 126.725 74.9519 128.721 73.3067C130.617 71.7584 132.962 70.9842 135.756 70.9842H197.422C198.919 71.0809 200.116 70.8874 201.014 70.4035C202.012 69.9196 202.761 69.3874 203.26 68.8067C203.759 68.2261 204.008 67.6455 204.008 67.0648C204.008 66.7745 203.759 66.2906 203.26 65.6132C202.761 64.839 202.012 64.2584 201.014 63.8713C200.116 63.3874 198.919 63.0971 197.422 63.0003H148.329C142.541 62.9035 137.752 61.7422 133.96 59.5164C130.168 57.1938 127.474 54.5326 125.877 51.5326C124.281 48.5326 123.482 45.5326 123.482 42.5326C123.482 39.5326 124.281 36.5809 125.877 33.6777C127.574 30.6777 130.268 28.1132 133.96 25.9842C137.752 23.7584 142.541 22.5487 148.329 22.3551C149.326 22.2584 150.075 22.21 150.574 22.21H210.594C213.388 22.21 215.733 23.0326 217.628 24.6777C219.624 26.2261 220.622 28.1616 220.622 30.4842Z" fill="#29292B"/>
<path d="M250.107 0C252.801 0.0967742 255.096 1.06452 256.992 2.90323C258.888 4.64516 259.886 6.82258 259.986 9.43548V80.5645C259.387 86.371 256.094 89.5161 250.107 90C247.313 90 244.868 89.129 242.773 87.3871C240.777 85.5484 239.779 83.2742 239.779 80.5645V9.43548C239.879 6.72581 240.927 4.5 242.923 2.75806C244.918 0.919355 247.313 0 250.107 0Z" fill="#29292B"/>
<path d="M309.979 87.9677C301.198 87.6774 294.563 85.6935 290.073 82.0161C285.582 78.2419 282.339 74.0323 280.344 69.3871C278.348 64.6452 277.35 59.8548 277.35 55.0161C277.35 49.9839 278.298 45.1452 280.194 40.5C282.19 35.7581 285.433 31.5484 289.923 27.871C294.513 24.0968 300.3 22.1613 307.285 22.0645H355.78C362.765 22.1613 368.503 24.0968 372.993 27.871C377.583 31.5484 380.826 35.7581 382.722 40.5C384.717 45.1452 385.715 49.9839 385.715 55.0161C385.715 59.8548 384.717 64.6452 382.722 69.3871C380.726 74.0323 377.483 78.2419 372.993 82.0161C368.503 85.6935 361.867 87.6774 353.086 87.9677H309.979ZM306.687 41.5161C304.791 41.5161 303.144 42.2903 301.747 43.8387C300.35 45.2903 299.303 47.0323 298.604 49.0645C298.005 51 297.706 52.9354 297.706 54.8709C297.706 56.9031 298.005 58.9355 298.604 60.9677C299.303 62.9032 300.35 64.6452 301.747 66.1936C303.144 67.6452 304.791 68.4193 306.687 68.5161H356.379C358.275 68.4193 359.921 67.6452 361.318 66.1936C362.715 64.6452 363.713 62.9032 364.312 60.9677C365.01 58.9355 365.359 56.9031 365.359 54.8709C365.359 52.9354 365.01 51 364.312 49.0645C363.713 47.0323 362.715 45.2903 361.318 43.8387C359.921 42.2903 358.275 41.5161 356.379 41.5161H306.687Z" fill="#29292B"/>
<path d="M417.857 89.9999C423.774 89.9999 428.571 85.2029 428.571 79.2856C428.571 73.3682 423.774 68.5713 417.857 68.5713C411.94 68.5713 407.143 73.3682 407.143 79.2856C407.143 85.2029 411.94 89.9999 417.857 89.9999Z" fill="#29292B"/>
</g>
<defs>
<clipPath id="clip0_12091_87">
<rect width="429" height="90" fill="white"/>
</clipPath>
</defs>
</svg>
