<svg width="494" height="90" viewBox="0 0 494 90" fill="none" xmlns="http://www.w3.org/2000/svg">
<g clip-path="url(#clip0_12091_63)">
<path d="M147.081 49.3022V73.6427H135.879V17.1426H147.081V35.658C149.776 32.4575 154.324 31.1099 158.283 31.1099C168.811 31.1099 173.696 38.4374 173.696 47.5335V73.6427H162.494V49.4706C162.494 44.8383 160.22 41.2167 154.829 41.2167C150.113 41.2167 147.334 44.7541 147.081 49.3022Z" fill="#29292B"/>
<path fill-rule="evenodd" clip-rule="evenodd" d="M114.856 54.3693H104.16V73.6426H92.5371V17.1426H114.856C126.648 17.1426 134.48 24.9753 134.48 35.7559C134.48 46.6207 126.648 54.3693 114.856 54.3693ZM104.244 44.3467H113.424C119.236 44.3467 122.773 40.9778 122.773 35.8401C122.773 30.5341 119.236 27.2494 113.424 27.2494H104.244V44.3467Z" fill="#29292B"/>
<path d="M178.748 73.642H189.949V32.2041H178.748V73.642Z" fill="#29292B"/>
<path d="M206.827 73.6427H195.625V17.1426H206.827V73.6427Z" fill="#29292B"/>
<path fill-rule="evenodd" clip-rule="evenodd" d="M222.11 49.8074C215.204 50.8181 209.729 54.945 209.729 62.3567C209.729 68.8419 215.12 74.8217 223.963 74.8217C230.111 74.8217 234.07 71.9581 236.175 68.6734C236.175 70.2737 236.344 72.5477 236.597 73.6426H246.872C246.619 72.2108 246.366 69.263 246.366 67.0732V46.6911C246.366 38.353 241.481 30.9414 228.343 30.9414C217.225 30.9414 211.245 38.1004 210.572 44.5856L220.51 46.6911C220.847 43.0695 223.542 39.9533 228.427 39.9533C233.143 39.9533 235.417 42.3957 235.417 45.3436C235.417 46.7754 234.659 47.9545 232.301 48.2914L222.11 49.8074ZM235.417 56.8822C235.417 64.2096 231.038 66.4836 226.321 66.4836C222.7 66.4836 220.931 64.1254 220.931 61.6829C220.931 58.4824 223.205 56.8822 226.069 56.461L235.417 55.0292V56.8822Z" fill="#29292B"/>
<path fill-rule="evenodd" clip-rule="evenodd" d="M290.678 17.1426V66.1468C290.678 68.9262 290.847 71.9582 291.015 73.6427H280.319C280.15 72.8005 279.898 70.7791 279.898 68.842C278.045 72.1267 273.833 74.6534 268.275 74.6534C256.483 74.6534 248.061 65.3888 248.061 52.8395C248.061 40.7114 256.231 31.1942 267.938 31.1942C275.097 31.1942 278.466 34.142 279.645 36.3318V17.1426H290.678ZM259.347 52.8395C259.347 60.2512 263.727 64.6308 269.622 64.6308C275.349 64.6308 279.813 60.2512 279.813 52.7553C279.813 45.3437 275.349 41.2167 269.622 41.2167C263.895 41.2167 259.347 45.4279 259.347 52.8395Z" fill="#29292B"/>
<path fill-rule="evenodd" clip-rule="evenodd" d="M333.655 61.7671L324.306 58.9877C322.958 62.6936 320.095 65.3045 314.873 65.3045C309.314 65.3045 304.682 61.346 304.429 55.8715H334.076C334.076 55.8302 334.087 55.698 334.102 55.4983C334.149 54.8827 334.244 53.6264 334.244 52.4183C334.244 39.111 326.581 30.9414 313.779 30.9414C303.167 30.9414 293.396 39.5322 293.396 52.7552C293.396 66.7363 303.419 74.9059 314.789 74.9059C324.98 74.9059 331.549 68.9261 333.655 61.7671ZM323.211 48.2072H304.682C304.935 44.4171 308.136 40.0375 313.947 40.0375C320.348 40.0375 323.043 44.0802 323.211 48.2072Z" fill="#29292B"/>
<path d="M347.949 73.6427H336.748V17.1426H347.949V73.6427Z" fill="#29292B"/>
<path fill-rule="evenodd" clip-rule="evenodd" d="M353.627 89.645H364.829V69.5999C366.85 72.3792 371.061 74.6533 376.789 74.6533C388.496 74.6533 396.328 65.3887 396.328 52.8394C396.328 40.5428 389.338 31.2783 377.21 31.2783C370.977 31.2783 366.345 34.0576 364.492 37.2581V32.2047H353.627V89.645ZM375.02 41.3008C380.747 41.3008 385.295 45.5962 385.295 52.9237C385.295 60.3353 380.747 64.6307 375.02 64.6307C369.293 64.6307 364.66 60.2511 364.66 52.9237C364.66 45.5962 369.293 41.3008 375.02 41.3008Z" fill="#29292B"/>
<path d="M410.082 49.3022V73.6427H398.881V17.1426H410.082V35.658C412.778 32.4575 417.326 31.1099 421.284 31.1099C431.812 31.1099 436.697 38.4374 436.697 47.5335V73.6427H425.495V49.4706C425.495 44.8383 423.221 41.2167 417.831 41.2167C413.114 41.2167 410.335 44.7541 410.082 49.3022Z" fill="#29292B"/>
<path d="M441.748 73.642H452.95V32.2041H441.748V73.642Z" fill="#29292B"/>
<path fill-rule="evenodd" clip-rule="evenodd" d="M456.1 62.3567C456.1 54.945 461.574 50.8181 468.481 49.8074L478.672 48.2914C481.03 47.9545 481.788 46.7754 481.788 45.3436C481.788 42.3957 479.514 39.9533 474.798 39.9533C469.913 39.9533 467.217 43.0695 466.881 46.6911L456.942 44.5856C457.616 38.1004 463.596 30.9414 474.713 30.9414C487.852 30.9414 492.737 38.353 492.737 46.6911V67.0732C492.737 69.263 492.99 72.2108 493.242 73.6426H482.967C482.715 72.5477 482.546 70.2737 482.546 68.6734C480.44 71.9581 476.482 74.8217 470.334 74.8217C461.49 74.8217 456.1 68.8419 456.1 62.3567ZM472.692 66.4836C477.408 66.4836 481.788 64.2096 481.788 56.8822V55.0292L472.439 56.461C469.576 56.8822 467.302 58.4824 467.302 61.6829C467.302 64.1254 469.07 66.4836 472.692 66.4836Z" fill="#29292B"/>
<path d="M189.95 26.9919C189.95 28.1754 188.99 29.1348 187.807 29.1348H180.891C179.707 29.1348 178.748 28.1754 178.748 26.9919V20.0705C178.748 18.8871 179.707 17.9277 180.891 17.9277H187.807C188.99 17.9277 189.95 18.8871 189.95 20.0705V26.9919Z" fill="#29292B"/>
<path d="M450.487 29.1348C451.671 29.1348 452.63 28.1754 452.63 26.9919V20.0705C452.63 18.8871 451.671 17.9277 450.487 17.9277H443.571C442.388 17.9277 441.428 18.8871 441.428 20.0705V26.9919C441.428 28.1754 442.388 29.1348 443.571 29.1348H450.487Z" fill="#29292B"/>
<path fill-rule="evenodd" clip-rule="evenodd" d="M4.2857 0C1.91894 0 0 1.91881 0 4.2857V25.7142C0 28.0811 1.91894 29.9999 4.2857 29.9999H25.7142C28.081 29.9999 29.9999 31.9187 29.9999 34.2856V56.1638C29.9999 58.2823 31.7169 59.9998 33.8357 59.9998H44.9999C61.5682 59.9998 74.9998 46.5684 74.9998 29.9999C74.9998 13.4314 61.5682 0 44.9999 0H4.2857ZM4.28571 60C1.91879 60 1.44208e-05 61.9188 1.44208e-05 64.2857V85.7142C1.44208e-05 88.0811 1.91879 89.9999 4.28571 89.9999H25.7142C28.0811 89.9999 29.9999 88.0811 29.9999 85.7142V64.2857C29.9999 61.9188 28.0811 60 25.7142 60H4.28571Z" fill="#29292B"/>
</g>
<defs>
<clipPath id="clip0_12091_63">
<rect width="494" height="90" fill="white"/>
</clipPath>
</defs>
</svg>
