<svg width="697" height="90" viewBox="0 0 697 90" fill="none" xmlns="http://www.w3.org/2000/svg">
<g clip-path="url(#clip0_12091_54)">
<path d="M696.131 88.699H671.609V1.30762H696.131V88.699ZM638.87 88.699H614.348V1.30762H638.87V88.699ZM684.261 55.8294H620.739V33.7859H684.261V55.8294Z" fill="#29292B"/>
<path d="M540.895 88.699H515.59L545.982 1.30762H581.59L611.851 88.699H584.982L571.156 45.3946L564.243 22.5685H562.416L555.243 45.3946L540.895 88.699ZM594.503 71.8729H533.851V50.4816H594.503V71.8729Z" fill="#29292B"/>
<path d="M456.405 88.699H431.883V1.30762H458.1L482.492 40.5685L488.231 51.2642H489.926L488.622 40.5685V1.30762H513.013V88.699H486.926L463.839 52.3077L456.796 39.9164H455.1L456.405 52.3077V88.699Z" fill="#29292B"/>
<path d="M364.28 88.699H339.758V1.30762H365.976L390.367 40.5685L396.106 51.2642H397.802L396.497 40.5685V1.30762H420.889V88.699H394.802L371.715 52.3077L364.671 39.9164H362.976L364.28 52.3077V88.699Z" fill="#29292B"/>
<path d="M266.302 88.699H240.998L271.389 1.30762H306.998L337.258 88.699H310.389L296.563 45.3946L289.65 22.5685H287.824L280.65 45.3946L266.302 88.699ZM319.911 71.8729H259.258V50.4816H319.911V71.8729Z" fill="#29292B"/>
<path d="M222.717 88.699H188.934L159.064 1.30762H186.717L205.238 61.3077H206.934L225.064 1.30762H252.717L222.717 88.699Z" fill="#29292B"/>
<path d="M99.8864 88.699H74.582L104.974 1.30762H140.583L170.843 88.699H143.974L130.148 45.3946L123.235 22.5685H121.409L114.235 45.3946L99.8864 88.699ZM153.496 71.8729H92.8429V50.4816H153.496V71.8729Z" fill="#29292B"/>
<path d="M39.2609 90C30.913 90 23.9565 88.7826 18.3913 86.3478C12.8261 83.8261 8.65217 80.3478 5.86957 75.913C3.08696 71.3913 1.69565 66.087 1.69565 60V58.3044H25.8261V59.3478C25.8261 61.6957 26.2174 63.5217 27 64.8261C27.7826 66.0435 29.1739 66.8696 31.1739 67.3044C33.2609 67.7391 36.2609 67.9565 40.1739 67.9565C44.7826 67.9565 47.7826 67.5652 49.1739 66.7826C50.6522 66 51.3913 64.6522 51.3913 62.7391C51.3913 61.3478 51.1739 60.2609 50.7391 59.4783C50.3913 58.6957 49.6957 58.087 48.6522 57.6522C47.6087 57.1304 46.087 56.7391 44.087 56.4783L25.0435 53.4783C19.1304 52.5217 14.3044 50.9131 10.5652 48.6522C6.91305 46.3044 4.21739 43.3913 2.47826 39.913C0.826087 36.3478 0 32.3043 0 27.7826C0 22.5652 1.34783 17.8696 4.04348 13.6956C6.73913 9.52174 10.8696 6.21739 16.4348 3.78261C22 1.26087 29.0435 0 37.5652 0C45.7391 0 52.4783 1.26087 57.7826 3.78261C63.087 6.21739 67.0435 9.60869 69.6522 13.9565C72.2609 18.2174 73.5652 23.087 73.5652 28.5652V30.7826H49.4348V29.2174C49.4348 27.4783 49.0435 26.087 48.2609 25.0435C47.5652 24 46.2609 23.2609 44.3478 22.8261C42.4348 22.3043 39.6522 22.0435 36 22.0435C31.3913 22.0435 28.3044 22.4348 26.7391 23.2174C25.1739 24 24.3913 25.2174 24.3913 26.8696C24.3913 27.7391 24.6087 28.4783 25.0435 29.087C25.4783 29.6957 26.1739 30.2174 27.1304 30.6522C28.1739 31 29.5217 31.3478 31.1739 31.6957L50.2174 35.087C56.3913 36.1304 61.3478 37.913 65.087 40.4348C68.9131 42.8696 71.6522 45.8696 73.3044 49.4348C75.0435 53 75.9131 57.0435 75.9131 61.5652C75.9131 66.6087 74.6522 71.3044 72.1304 75.6522C69.6957 80 65.7826 83.4783 60.3913 86.087C55.087 88.6957 48.0435 90 39.2609 90Z" fill="#29292B"/>
</g>
<defs>
<clipPath id="clip0_12091_54">
<rect width="697" height="90" fill="white"/>
</clipPath>
</defs>
</svg>
